# xmcd CD database file
#
# Track frame offsets:
#	150
#	20191
#	41163
#	62229
#	82166
#	103663
#	123636
#	142545
#	161626
#	187801
#	203391
#	226369
#	246163
#	269954
#	290058
#
# Disc length: 4136 seconds
#
# Revision: 0
# Processed by: cddbd v1.5.2PL0 Copyright (c) Steve Scherf et al.
# Submitted via: CDex 1.70beta2
#
DISCID=e110260f
DTITLE=Wolfgang Buschner liest Karl May - Der Ölprinz
DYEAR=2006
DGENRE=Hörbuch Karl May
TTITLE0=Der Ölprinz-CD08-01
TTITLE1=Der Ölprinz-CD08-02
TTITLE2=Der Ölprinz-CD08-03
TTITLE3=Der Ölprinz-CD08-04
TTITLE4=Der Ölprinz-CD08-05
TTITLE5=Der Ölprinz-CD08-06
TTITLE6=Der Ölprinz-CD08-07
TTITLE7=Der Ölprinz-CD08-08
TTITLE8=Der Ölprinz-CD08-09
TTITLE9=Der Ölprinz-CD08-10
TTITLE10=Der Ölprinz-CD08-11
TTITLE11=Der Ölprinz-CD08-12
TTITLE12=Der Ölprinz-CD08-13
TTITLE13=Der Ölprinz-CD08-14
TTITLE14=Der Ölprinz-CD08-15 bws
EXTD=YEAR: 2006
EXTT0=
EXTT1=
EXTT2=
EXTT3=
EXTT4=
EXTT5=
EXTT6=
EXTT7=
EXTT8=
EXTT9=
EXTT10=
EXTT11=
EXTT12=
EXTT13=
EXTT14=
PLAYORDER=
